<svg width="18" height="15" viewBox="0 0 18 15" fill="none" xmlns="http://www.w3.org/2000/svg">
<path d="M8.14534 1.19312C6.68075 1.19312 5.24905 1.54166 4.03129 2.19468C2.81352 2.84769 1.86439 3.77584 1.30392 4.86177C0.743443 5.94769 0.596797 7.14261 0.882525 8.29542C1.16825 9.44823 1.87352 10.5072 2.90914 11.3383C3.94476 12.1694 5.26423 12.7354 6.70068 12.9647C8.13713 13.194 9.62605 13.0764 10.9792 12.6265C12.3323 12.1767 13.4888 11.415 14.3025 10.4377C15.1161 9.46042 15.5504 8.31142 15.5504 7.13602C15.5504 6.35559 15.3589 5.5828 14.9868 4.86177C14.6146 4.14074 14.0692 3.4856 13.3815 2.93375C12.6939 2.3819 11.8776 1.94415 10.9792 1.64549C10.0807 1.34683 9.11779 1.19312 8.14534 1.19312V1.19312ZM8.14534 11.8903C6.97367 11.8903 5.82831 11.6115 4.8541 11.0891C3.87989 10.5667 3.12058 9.82416 2.6722 8.95542C2.22382 8.08668 2.10651 7.13075 2.33509 6.2085C2.56367 5.28625 3.12788 4.43911 3.95638 3.77421C4.78488 3.1093 5.84045 2.6565 6.98961 2.47305C8.13877 2.2896 9.3299 2.38375 10.4124 2.7436C11.4949 3.10344 12.4201 3.71281 13.071 4.49466C13.722 5.2765 14.0694 6.1957 14.0694 7.13602C14.0694 8.39695 13.4453 9.60623 12.3343 10.4978C11.2233 11.3894 9.71651 11.8903 8.14534 11.8903V11.8903ZM8.88585 7.09442V4.16457C8.88585 4.00695 8.80783 3.85579 8.66896 3.74434C8.53009 3.63289 8.34174 3.57028 8.14534 3.57028C7.94895 3.57028 7.76059 3.63289 7.62172 3.74434C7.48285 3.85579 7.40483 4.00695 7.40483 4.16457V7.13602C7.40483 7.13602 7.40483 7.17762 7.40483 7.20139C7.38661 7.32221 7.41504 7.4446 7.48629 7.55202L8.59705 9.09718C8.69525 9.2343 8.8573 9.33451 9.04756 9.37574C9.23781 9.41698 9.44069 9.39587 9.61155 9.31707C9.78241 9.23826 9.90727 9.10821 9.95866 8.95552C10.01 8.80283 9.98374 8.64001 9.88554 8.50289L8.88585 7.09442Z" fill="white"/>
</svg>
