<svg width="129" height="129" viewBox="0 0 129 129" fill="none" xmlns="http://www.w3.org/2000/svg">
<g filter="url(#filter0_f_320_21)">
<circle r="17.5" transform="matrix(1 0 0 -1 64.5 64.5)" fill="#F7A158"/>
</g>
<path d="M74.666 55.5416C72.9931 55.5416 71.3578 56.0377 69.9668 56.9671C68.5758 57.8965 67.4917 59.2176 66.8515 60.7631C66.2113 62.3087 66.0438 64.0094 66.3702 65.6501C66.6966 67.2909 67.5022 68.798 68.6851 69.9809C69.868 71.1638 71.3751 71.9694 73.0159 72.2958C74.6566 72.6222 76.3573 72.4547 77.9029 71.8145C79.4484 71.1743 80.7694 70.0901 81.6989 68.6992C82.6283 67.3082 83.1243 65.6729 83.1243 64C83.1243 61.7567 82.2332 59.6053 80.647 58.019C79.0607 56.4328 76.9093 55.5416 74.666 55.5416ZM74.666 67.625C73.9491 67.625 73.2482 67.4124 72.6521 67.0141C72.0559 66.6157 71.5913 66.0496 71.3169 65.3872C71.0426 64.7248 70.9708 63.996 71.1107 63.2928C71.2505 62.5896 71.5958 61.9437 72.1028 61.4367C72.6097 60.9298 73.2556 60.5845 73.9588 60.4446C74.662 60.3048 75.3909 60.3765 76.0532 60.6509C76.7156 60.9253 77.2818 61.3899 77.6801 61.986C78.0784 62.5822 78.291 63.283 78.291 64C78.291 64.9614 77.9091 65.8834 77.2293 66.5632C76.5495 67.2431 75.6274 67.625 74.666 67.625ZM74.666 47.0833H55.3327C50.8461 47.0833 46.5433 48.8656 43.3708 52.0381C40.1983 55.2106 38.416 59.5134 38.416 64C38.416 68.4866 40.1983 72.7894 43.3708 75.9619C46.5433 79.1344 50.8461 80.9166 55.3327 80.9166H74.666C79.1526 80.9166 83.4554 79.1344 86.6279 75.9619C89.8004 72.7894 91.5827 68.4866 91.5827 64C91.5827 59.5134 89.8004 55.2106 86.6279 52.0381C83.4554 48.8656 79.1526 47.0833 74.666 47.0833V47.0833ZM74.666 76.0833H55.3327C52.128 76.0833 49.0545 74.8103 46.7885 72.5442C44.5224 70.2781 43.2493 67.2047 43.2493 64C43.2493 60.7953 44.5224 57.7218 46.7885 55.4558C49.0545 53.1897 52.128 51.9166 55.3327 51.9166H74.666C77.8707 51.9166 80.9442 53.1897 83.2102 55.4558C85.4763 57.7218 86.7493 60.7953 86.7493 64C86.7493 67.2047 85.4763 70.2781 83.2102 72.5442C80.9442 74.8103 77.8707 76.0833 74.666 76.0833Z" fill="#F7A158"/>
<defs>
<filter id="filter0_f_320_21" x="0" y="0" width="129" height="129" filterUnits="userSpaceOnUse" color-interpolation-filters="sRGB">
<feFlood flood-opacity="0" result="BackgroundImageFix"/>
<feBlend mode="normal" in="SourceGraphic" in2="BackgroundImageFix" result="shape"/>
<feGaussianBlur stdDeviation="23.5" result="effect1_foregroundBlur_320_21"/>
</filter>
</defs>
</svg>
