<svg width="129" height="129" viewBox="0 0 129 129" fill="none" xmlns="http://www.w3.org/2000/svg">
<g filter="url(#filter0_f_320_19)">
<circle cx="64.5" cy="64.5" r="17.5" fill="#F7A158"/>
</g>
<path d="M65.4992 40.0833C60.5696 40.0927 55.7491 41.5354 51.6249 44.2358C47.5006 46.9361 44.2507 50.7775 42.2708 55.2921C40.291 59.8067 39.6667 64.7996 40.4741 69.6626C41.2814 74.5257 43.4856 79.049 46.818 82.6817V82.6817C49.1981 85.2616 52.0867 87.3206 55.3019 88.7288C58.5171 90.1371 61.9892 90.8641 65.4992 90.8641C69.0093 90.8641 72.4814 90.1371 75.6966 88.7288C78.9118 87.3206 81.8004 85.2616 84.1805 82.6817V82.6817C87.5129 79.049 89.7171 74.5257 90.5244 69.6626C91.3318 64.7996 90.7075 59.8067 88.7277 55.2921C86.7479 50.7775 83.4979 46.9361 79.3736 44.2358C75.2494 41.5354 70.4289 40.0927 65.4992 40.0833V40.0833ZM65.4992 85.8333C60.2341 85.8253 55.1773 83.7753 51.393 80.1146C52.5419 77.3176 54.4965 74.9253 57.0082 73.2416C59.5199 71.558 62.4755 70.6591 65.4992 70.6591C68.523 70.6591 71.4786 71.558 73.9903 73.2416C76.502 74.9253 78.4566 77.3176 79.6055 80.1146C75.8212 83.7753 70.7644 85.8253 65.4992 85.8333ZM60.4159 60.4167C60.4159 59.4113 60.714 58.4285 61.2726 57.5925C61.8312 56.7566 62.6251 56.105 63.5539 55.7203C64.4828 55.3355 65.5049 55.2349 66.491 55.431C67.477 55.6272 68.3828 56.1113 69.0937 56.8222C69.8046 57.5331 70.2888 58.4389 70.4849 59.425C70.6811 60.411 70.5804 61.4331 70.1956 62.362C69.8109 63.2908 69.1593 64.0848 68.3234 64.6433C67.4874 65.2019 66.5046 65.5 65.4992 65.5C64.1511 65.5 62.8581 64.9644 61.9048 64.0111C60.9515 63.0578 60.4159 61.7649 60.4159 60.4167ZM83.0622 75.6667C80.7913 71.7824 77.2961 68.761 73.1242 67.0758C74.4184 65.6084 75.2616 63.7988 75.5527 61.864C75.8439 59.9292 75.5705 57.9515 74.7655 56.1683C73.9605 54.385 72.6581 52.8719 71.0144 51.8105C69.3708 50.7491 67.4558 50.1846 65.4992 50.1846C63.5427 50.1846 61.6277 50.7491 59.9841 51.8105C58.3404 52.8719 57.038 54.385 56.233 56.1683C55.428 57.9515 55.1546 59.9292 55.4458 61.864C55.7369 63.7988 56.5801 65.6084 57.8743 67.0758C53.7024 68.761 50.2072 71.7824 47.9363 75.6667C46.1265 72.5839 45.1703 69.0748 45.1659 65.5C45.1659 60.1073 47.3082 54.9354 51.1214 51.1222C54.9347 47.3089 60.1065 45.1667 65.4992 45.1667C70.892 45.1667 76.0638 47.3089 79.8771 51.1222C83.6903 54.9354 85.8326 60.1073 85.8326 65.5C85.8282 69.0748 84.872 72.5839 83.0622 75.6667V75.6667Z" fill="#F7A158"/>
<defs>
<filter id="filter0_f_320_19" x="0" y="0" width="129" height="129" filterUnits="userSpaceOnUse" color-interpolation-filters="sRGB">
<feFlood flood-opacity="0" result="BackgroundImageFix"/>
<feBlend mode="normal" in="SourceGraphic" in2="BackgroundImageFix" result="shape"/>
<feGaussianBlur stdDeviation="23.5" result="effect1_foregroundBlur_320_19"/>
</filter>
</defs>
</svg>
