<svg width="129" height="129" viewBox="0 0 129 129" fill="none" xmlns="http://www.w3.org/2000/svg">
<g filter="url(#filter0_f_320_18)">
<circle cx="64.5" cy="64.5" r="17.5" fill="#F7A158"/>
</g>
<path d="M87.925 41.15C86.133 40.8413 84.3184 40.6824 82.5 40.675C76.2959 40.6699 70.2212 42.4489 65 45.8C59.7653 42.4929 53.6916 40.7576 47.5 40.8C45.6816 40.8074 43.867 40.9663 42.075 41.275C41.488 41.3762 40.9564 41.6836 40.576 42.142C40.1956 42.6003 39.9913 43.1794 40 43.775V73.775C39.9946 74.1423 40.0703 74.5063 40.2216 74.8411C40.3729 75.1759 40.5961 75.4732 40.8754 75.7119C41.1547 75.9506 41.4831 76.1248 41.8374 76.2221C42.1916 76.3194 42.5629 76.3375 42.925 76.275C46.5075 75.6547 50.178 75.7576 53.7201 76.5777C57.2623 77.3978 60.6045 78.9184 63.55 81.05L63.85 81.225H64.125C64.4022 81.3405 64.6996 81.4 65 81.4C65.3003 81.4 65.5977 81.3405 65.875 81.225H66.15L66.45 81.05C69.3749 78.8707 72.7075 77.3008 76.2503 76.4334C79.7932 75.5659 83.4741 75.4185 87.075 76C87.437 76.0625 87.8083 76.0444 88.1626 75.9471C88.5168 75.8498 88.8453 75.6756 89.1245 75.4369C89.4038 75.1982 89.627 74.9009 89.7783 74.5661C89.9297 74.2313 90.0053 73.8673 90 73.5V43.5C89.974 42.9304 89.754 42.3868 89.3766 41.9593C88.9992 41.5319 88.487 41.2463 87.925 41.15ZM62.5 74.375C57.8747 71.9417 52.7263 70.6718 47.5 70.675C46.675 70.675 45.85 70.675 45 70.675V45.675C45.8326 45.627 46.6673 45.627 47.5 45.675C52.8334 45.6691 58.0505 47.2342 62.5 50.175V74.375ZM85 70.775C84.15 70.775 83.325 70.775 82.5 70.775C77.2737 70.7718 72.1253 72.0417 67.5 74.475V50.175C71.9494 47.2342 77.1665 45.6691 82.5 45.675C83.3326 45.627 84.1673 45.627 85 45.675V70.775ZM87.925 81.15C86.133 80.8413 84.3184 80.6825 82.5 80.675C76.2959 80.6699 70.2212 82.4489 65 85.8C59.7788 82.4489 53.7041 80.6699 47.5 80.675C45.6816 80.6825 43.867 80.8413 42.075 81.15C41.7495 81.2016 41.4375 81.3171 41.1569 81.4898C40.8762 81.6624 40.6325 81.8888 40.4396 82.156C40.2468 82.4232 40.1087 82.7259 40.0332 83.0466C39.9578 83.3674 39.9465 83.6999 40 84.025C40.127 84.6742 40.5062 85.2466 41.0544 85.6168C41.6027 85.987 42.2753 86.1248 42.925 86C46.5075 85.3797 50.178 85.4826 53.7201 86.3027C57.2623 87.1228 60.6045 88.6434 63.55 90.775C63.9734 91.0765 64.4802 91.2385 65 91.2385C65.5197 91.2385 66.0266 91.0765 66.45 90.775C69.3954 88.6434 72.7376 87.1228 76.2798 86.3027C79.822 85.4826 83.4924 85.3797 87.075 86C87.7246 86.1248 88.3972 85.987 88.9455 85.6168C89.4937 85.2466 89.8729 84.6742 90 84.025C90.0535 83.6999 90.0422 83.3674 89.9667 83.0466C89.8913 82.7259 89.7531 82.4232 89.5603 82.156C89.3675 81.8888 89.1237 81.6624 88.8431 81.4898C88.5624 81.3171 88.2504 81.2016 87.925 81.15V81.15Z" fill="#F7A158"/>
<defs>
<filter id="filter0_f_320_18" x="0" y="0" width="129" height="129" filterUnits="userSpaceOnUse" color-interpolation-filters="sRGB">
<feFlood flood-opacity="0" result="BackgroundImageFix"/>
<feBlend mode="normal" in="SourceGraphic" in2="BackgroundImageFix" result="shape"/>
<feGaussianBlur stdDeviation="23.5" result="effect1_foregroundBlur_320_18"/>
</filter>
</defs>
</svg>
