<svg width="18" height="15" viewBox="0 0 18 15" fill="none" xmlns="http://www.w3.org/2000/svg">
<path d="M14.3947 8.1286C14.2318 8.1286 14.0615 8.087 13.8986 8.05729C13.5687 7.99894 13.2445 7.92148 12.9285 7.82552C12.585 7.72522 12.2074 7.73043 11.8684 7.84014C11.5293 7.94985 11.2528 8.15632 11.0921 8.41981L10.9292 8.68724C10.2079 8.36524 9.54513 7.96531 8.9594 7.49866C8.37793 7.02858 7.87961 6.49668 7.47838 5.91784L7.7894 5.75144C8.11771 5.62243 8.37498 5.40053 8.51169 5.12844C8.64839 4.85635 8.65488 4.5533 8.52991 4.2776C8.41233 4.02349 8.31585 3.76342 8.24111 3.49908C8.20408 3.36834 8.17446 3.23165 8.15225 3.09496C8.06232 2.67636 7.78912 2.29727 7.38184 2.02598C6.97455 1.75468 6.45996 1.609 5.93072 1.61518H3.70919C3.39005 1.61277 3.07401 1.66558 2.78259 1.77001C2.49117 1.87444 2.23121 2.02803 2.0204 2.22033C1.80959 2.41264 1.65289 2.63914 1.56096 2.88441C1.46902 3.12969 1.44402 3.38798 1.48765 3.64171C1.88215 6.13142 3.29896 8.44469 5.51429 10.2161C7.72962 11.9876 10.6172 13.1162 13.7209 13.4237H14.0023C14.5483 13.4244 15.0756 13.2636 15.4833 12.9721C15.7176 12.8039 15.9047 12.5978 16.0324 12.3673C16.16 12.1368 16.2253 11.8872 16.2238 11.6349V9.85205C16.2147 9.43924 16.0274 9.04176 15.6939 8.72745C15.3603 8.41314 14.9011 8.20148 14.3947 8.1286V8.1286ZM14.765 11.6943C14.7649 11.7787 14.7423 11.8621 14.6989 11.939C14.6555 12.0158 14.5922 12.0844 14.5132 12.1401C14.4307 12.1977 14.334 12.2407 14.2294 12.2663C14.1247 12.292 14.0146 12.2995 13.906 12.2886C11.1327 12.0033 8.55674 10.9851 6.58438 9.39461C4.61201 7.80418 3.35553 5.73203 3.01311 3.50502C3.00132 3.41797 3.01165 3.3299 3.04347 3.24614C3.07529 3.16239 3.12794 3.08467 3.19823 3.0177C3.26763 2.95431 3.35305 2.90351 3.44881 2.86867C3.54457 2.83383 3.64848 2.81575 3.75362 2.81565H5.97515C6.14735 2.81257 6.3155 2.85777 6.45066 2.94346C6.58582 3.02915 6.67953 3.14998 6.71566 3.28514C6.74528 3.44757 6.7823 3.60803 6.82673 3.76651C6.91228 4.07979 7.02612 4.38765 7.16737 4.68766L6.13065 5.07395C6.04201 5.10659 5.96228 5.15296 5.89603 5.2104C5.82978 5.26783 5.77832 5.33521 5.7446 5.40865C5.71089 5.48209 5.69558 5.56016 5.69956 5.63836C5.70355 5.71656 5.72674 5.79337 5.7678 5.86436C6.83355 7.69641 8.66856 9.16909 10.9514 10.0244C11.1317 10.0838 11.3339 10.0838 11.5142 10.0244C11.6065 9.99788 11.6914 9.95691 11.7638 9.90386C11.8363 9.85081 11.8949 9.78674 11.9363 9.71536L12.3954 8.88335C12.7782 8.99322 13.1689 9.08451 13.5654 9.15673C13.7628 9.19238 13.9628 9.2221 14.1652 9.24587C14.3336 9.27486 14.4842 9.35007 14.5909 9.45854C14.6977 9.56701 14.754 9.70196 14.7502 9.84016L14.765 11.6943Z" fill="white"/>
</svg>
