<svg width="129" height="129" viewBox="0 0 129 129" fill="none" xmlns="http://www.w3.org/2000/svg">
<g filter="url(#filter0_f_320_20)">
<circle r="17.5" transform="matrix(1 0 0 -1 64.5 64.5)" fill="#F7A158"/>
</g>
<path d="M87.8327 41.4166H79.3327V38.5833C79.3327 36.329 78.4371 34.167 76.8431 32.5729C75.249 30.9788 73.087 30.0833 70.8327 30.0833H65.166C62.9117 30.0833 60.7497 30.9788 59.1556 32.5729C57.5615 34.167 56.666 36.329 56.666 38.5833V41.4166H48.166C45.9117 41.4166 43.7497 42.3122 42.1556 43.9062C40.5615 45.5003 39.666 47.6623 39.666 49.9166V75.4166C39.666 77.671 40.5615 79.833 42.1556 81.4271C43.7497 83.0211 45.9117 83.9166 48.166 83.9166H87.8327C90.087 83.9166 92.249 83.0211 93.8431 81.4271C95.4371 79.833 96.3327 77.671 96.3327 75.4166V49.9166C96.3327 47.6623 95.4371 45.5003 93.8431 43.9062C92.249 42.3122 90.087 41.4166 87.8327 41.4166ZM62.3327 38.5833C62.3327 37.8319 62.6312 37.1112 63.1625 36.5798C63.6939 36.0485 64.4146 35.75 65.166 35.75H70.8327C71.5841 35.75 72.3048 36.0485 72.8362 36.5798C73.3675 37.1112 73.666 37.8319 73.666 38.5833V41.4166H62.3327V38.5833ZM90.666 75.4166C90.666 76.1681 90.3675 76.8888 89.8362 77.4201C89.3048 77.9515 88.5841 78.25 87.8327 78.25H48.166C47.4146 78.25 46.6939 77.9515 46.1625 77.4201C45.6312 76.8888 45.3327 76.1681 45.3327 75.4166V59.8333C48.0964 60.9296 50.9375 61.8198 53.8327 62.4966V64.1683C53.8327 64.9198 54.1312 65.6404 54.6625 66.1718C55.1939 66.7031 55.9146 67.0016 56.666 67.0016C57.4175 67.0016 58.1381 66.7031 58.6695 66.1718C59.2008 65.6404 59.4993 64.9198 59.4993 64.1683V63.5733C62.3167 63.9569 65.1561 64.1556 67.9993 64.1683C70.8426 64.1556 73.682 63.9569 76.4993 63.5733V64.1683C76.4993 64.9198 76.7979 65.6404 77.3292 66.1718C77.8606 66.7031 78.5812 67.0016 79.3327 67.0016C80.0841 67.0016 80.8048 66.7031 81.3362 66.1718C81.8675 65.6404 82.166 64.9198 82.166 64.1683V62.4966C85.0612 61.8198 87.9023 60.9296 90.666 59.8333V75.4166ZM90.666 53.6283C87.9103 54.7914 85.0684 55.7387 82.166 56.4616V55.5833C82.166 54.8319 81.8675 54.1112 81.3362 53.5798C80.8048 53.0485 80.0841 52.75 79.3327 52.75C78.5812 52.75 77.8606 53.0485 77.3292 53.5798C76.7979 54.1112 76.4993 54.8319 76.4993 55.5833V57.68C70.8646 58.5301 65.1341 58.5301 59.4993 57.68V55.5833C59.4993 54.8319 59.2008 54.1112 58.6695 53.5798C58.1381 53.0485 57.4175 52.75 56.666 52.75C55.9146 52.75 55.1939 53.0485 54.6625 53.5798C54.1312 54.1112 53.8327 54.8319 53.8327 55.5833V56.5183C50.9303 55.7953 48.0884 54.848 45.3327 53.685V49.9166C45.3327 49.1652 45.6312 48.4445 46.1625 47.9132C46.6939 47.3818 47.4146 47.0833 48.166 47.0833H87.8327C88.5841 47.0833 89.3048 47.3818 89.8362 47.9132C90.3675 48.4445 90.666 49.1652 90.666 49.9166V53.6283Z" fill="#F7A158"/>
<defs>
<filter id="filter0_f_320_20" x="0" y="0" width="129" height="129" filterUnits="userSpaceOnUse" color-interpolation-filters="sRGB">
<feFlood flood-opacity="0" result="BackgroundImageFix"/>
<feBlend mode="normal" in="SourceGraphic" in2="BackgroundImageFix" result="shape"/>
<feGaussianBlur stdDeviation="23.5" result="effect1_foregroundBlur_320_20"/>
</filter>
</defs>
</svg>
