<svg width="129" height="129" viewBox="0 0 129 129" fill="none" xmlns="http://www.w3.org/2000/svg">
<g filter="url(#filter0_f_316_18)">
<circle cx="64.5" cy="64.5" r="17.5" fill="#F7A158"/>
</g>
<path d="M88.416 76.9583H42.5827C41.9749 76.9583 41.392 77.1998 40.9622 77.6295C40.5325 78.0593 40.291 78.6422 40.291 79.25C40.291 79.8578 40.5325 80.4407 40.9622 80.8704C41.392 81.3002 41.9749 81.5417 42.5827 81.5417H88.416C89.0238 81.5417 89.6067 81.3002 90.0365 80.8704C90.4662 80.4407 90.7077 79.8578 90.7077 79.25C90.7077 78.6422 90.4662 78.0593 90.0365 77.6295C89.6067 77.1998 89.0238 76.9583 88.416 76.9583ZM88.416 86.125H42.5827C41.9749 86.125 41.392 86.3664 40.9622 86.7962C40.5325 87.226 40.291 87.8089 40.291 88.4167C40.291 89.0244 40.5325 89.6073 40.9622 90.0371C41.392 90.4669 41.9749 90.7083 42.5827 90.7083H88.416C89.0238 90.7083 89.6067 90.4669 90.0365 90.0371C90.4662 89.6073 90.7077 89.0244 90.7077 88.4167C90.7077 87.8089 90.4662 87.226 90.0365 86.7962C89.6067 86.3664 89.0238 86.125 88.416 86.125ZM51.7493 54.0417C51.2961 54.0417 50.853 54.1761 50.4762 54.4279C50.0993 54.6797 49.8056 55.0376 49.6321 55.4563C49.4587 55.8751 49.4133 56.3359 49.5017 56.7804C49.5901 57.2249 49.8084 57.6333 50.1289 57.9538C50.4494 58.2743 50.8577 58.4925 51.3023 58.581C51.7468 58.6694 52.2076 58.624 52.6263 58.4505C53.0451 58.2771 53.403 57.9834 53.6548 57.6065C53.9066 57.2296 54.041 56.7866 54.041 56.3333C54.041 55.7255 53.7996 55.1426 53.3698 54.7129C52.94 54.2831 52.3571 54.0417 51.7493 54.0417ZM83.8327 40.2917H47.166C45.3427 40.2917 43.594 41.016 42.3047 42.3053C41.0153 43.5946 40.291 45.3433 40.291 47.1667V65.5C40.291 67.3234 41.0153 69.072 42.3047 70.3613C43.594 71.6507 45.3427 72.375 47.166 72.375H83.8327C85.656 72.375 87.4047 71.6507 88.694 70.3613C89.9834 69.072 90.7077 67.3234 90.7077 65.5V47.1667C90.7077 45.3433 89.9834 43.5946 88.694 42.3053C87.4047 41.016 85.656 40.2917 83.8327 40.2917V40.2917ZM86.1243 65.5C86.1243 66.1078 85.8829 66.6907 85.4531 67.1204C85.0234 67.5502 84.4405 67.7917 83.8327 67.7917H47.166C46.5582 67.7917 45.9753 67.5502 45.5456 67.1204C45.1158 66.6907 44.8743 66.1078 44.8743 65.5V47.1667C44.8743 46.5589 45.1158 45.976 45.5456 45.5462C45.9753 45.1164 46.5582 44.875 47.166 44.875H83.8327C84.4405 44.875 85.0234 45.1164 85.4531 45.5462C85.8829 45.976 86.1243 46.5589 86.1243 47.1667V65.5ZM65.4993 49.4583C64.1396 49.4583 62.8104 49.8615 61.6798 50.617C60.5492 51.3724 59.668 52.4461 59.1477 53.7024C58.6273 54.9586 58.4912 56.3409 58.7564 57.6746C59.0217 59.0082 59.6765 60.2332 60.638 61.1947C61.5995 62.1562 62.8245 62.8109 64.1581 63.0762C65.4917 63.3415 66.8741 63.2053 68.1303 62.685C69.3865 62.1646 70.4603 61.2835 71.2157 60.1529C71.9711 59.0223 72.3743 57.6931 72.3743 56.3333C72.3743 54.51 71.65 52.7613 70.3607 51.472C69.0714 50.1827 67.3227 49.4583 65.4993 49.4583ZM65.4993 58.625C65.0461 58.625 64.603 58.4906 64.2262 58.2388C63.8493 57.987 63.5556 57.6291 63.3821 57.2103C63.2087 56.7916 63.1633 56.3308 63.2517 55.8862C63.3401 55.4417 63.5584 55.0334 63.8789 54.7129C64.1994 54.3924 64.6077 54.1741 65.0523 54.0857C65.4968 53.9973 65.9576 54.0426 66.3763 54.2161C66.7951 54.3895 67.153 54.6833 67.4048 55.0601C67.6566 55.437 67.791 55.8801 67.791 56.3333C67.791 56.9411 67.5496 57.524 67.1198 57.9538C66.69 58.3835 66.1071 58.625 65.4993 58.625ZM79.2493 54.0417C78.7961 54.0417 78.353 54.1761 77.9762 54.4279C77.5993 54.6797 77.3056 55.0376 77.1321 55.4563C76.9587 55.8751 76.9133 56.3359 77.0017 56.7804C77.0901 57.2249 77.3084 57.6333 77.6289 57.9538C77.9494 58.2743 78.3577 58.4925 78.8023 58.581C79.2468 58.6694 79.7076 58.624 80.1263 58.4505C80.5451 58.2771 80.903 57.9834 81.1548 57.6065C81.4066 57.2296 81.541 56.7866 81.541 56.3333C81.541 55.7255 81.2996 55.1426 80.8698 54.7129C80.44 54.2831 79.8571 54.0417 79.2493 54.0417Z" fill="#F7A158"/>
<defs>
<filter id="filter0_f_316_18" x="0" y="0" width="129" height="129" filterUnits="userSpaceOnUse" color-interpolation-filters="sRGB">
<feFlood flood-opacity="0" result="BackgroundImageFix"/>
<feBlend mode="normal" in="SourceGraphic" in2="BackgroundImageFix" result="shape"/>
<feGaussianBlur stdDeviation="23.5" result="effect1_foregroundBlur_316_18"/>
</filter>
</defs>
</svg>
