<svg width="18" height="15" viewBox="0 0 18 15" fill="none" xmlns="http://www.w3.org/2000/svg">
<path d="M13.3281 2.91253C12.1497 1.96683 10.5515 1.43555 8.885 1.43555C7.21853 1.43555 5.62031 1.96683 4.44194 2.91253C3.26357 3.85822 2.60156 5.14086 2.60156 6.47827C2.60156 7.81568 3.26357 9.09832 4.44194 10.044L8.34443 13.1819C8.41327 13.2376 8.49517 13.2818 8.58541 13.312C8.67565 13.3421 8.77243 13.3577 8.87019 13.3577C8.96795 13.3577 9.06474 13.3421 9.15497 13.312C9.24521 13.2818 9.32711 13.2376 9.39595 13.1819L13.3281 10.0143C14.5015 9.07254 15.1607 7.79525 15.1607 6.46341C15.1607 5.13158 14.5015 3.85429 13.3281 2.91253V2.91253ZM12.2691 9.16446L8.885 11.8923L5.50087 9.16446C4.83229 8.62741 4.37713 7.94334 4.1929 7.19872C4.00868 6.4541 4.10367 5.68236 4.46586 4.98106C4.82806 4.27976 5.4412 3.68038 6.22778 3.25869C7.01436 2.83699 7.93906 2.61192 8.885 2.61192C9.83094 2.61192 10.7556 2.83699 11.5422 3.25869C12.3288 3.68038 12.9419 4.27976 13.3041 4.98106C13.6663 5.68236 13.7613 6.4541 13.5771 7.19872C13.3929 7.94334 12.9377 8.62741 12.2691 9.16446V9.16446ZM6.66347 4.6538C6.06567 5.13504 5.72998 5.78685 5.72998 6.46638C5.72998 7.14592 6.06567 7.79773 6.66347 8.27897C7.1076 8.63601 7.67322 8.87985 8.28937 8.97988C8.90552 9.07991 9.54476 9.03169 10.1269 8.84126C10.709 8.65083 11.2081 8.32668 11.5616 7.90947C11.915 7.49226 12.1071 7.00057 12.1136 6.4961C12.117 6.15926 12.0361 5.8253 11.8759 5.51397C11.7156 5.20263 11.4792 4.92025 11.1806 4.68351C10.8871 4.44257 10.5371 4.25059 10.1508 4.11862C9.76455 3.98664 9.34955 3.91728 8.92973 3.91452C8.5099 3.91176 8.09354 3.97565 7.70461 4.10253C7.31567 4.2294 6.96184 4.41675 6.66347 4.6538V4.6538ZM10.1365 7.43508C9.85584 7.66373 9.48497 7.80705 9.08725 7.84053C8.68954 7.87402 8.28968 7.7956 7.95604 7.61867C7.62239 7.44174 7.37569 7.1773 7.2581 6.87055C7.14052 6.5638 7.15935 6.2338 7.31139 5.93696C7.46342 5.64013 7.73921 5.39489 8.09161 5.24318C8.444 5.09147 8.85112 5.04271 9.24336 5.10523C9.6356 5.16776 9.98859 5.33768 10.242 5.58596C10.4954 5.83424 10.6335 6.14545 10.6326 6.46638C10.6218 6.83322 10.4301 7.18163 10.0994 7.43508H10.1365Z" fill="white"/>
</svg>
